<?xml version="1.0" encoding="UTF-8"?>
<svg version="1.1" xmlns="http://www.w3.org/2000/svg" width="1024" height="1024">
<path d="M0 0 C1.47765423 -0.00448704 2.95530398 -0.01072222 4.43294442 -0.01852533 C8.47062942 -0.03483028 12.50793389 -0.02649613 16.54561809 -0.0139137 C20.94693879 -0.00462949 25.34819792 -0.01861089 29.74950635 -0.02955288 C37.45583242 -0.04550993 45.16204924 -0.04664479 52.86838531 -0.03795528 C64.32796219 -0.02506846 75.78744052 -0.0350569 87.2470115 -0.04945483 C107.71464041 -0.0743779 128.18222304 -0.07628092 148.64986269 -0.06818072 C166.56021168 -0.06110724 184.47054272 -0.0610512 202.3808918 -0.06804371 C204.78359258 -0.06895504 207.18629336 -0.0698658 209.58899414 -0.070776 C213.20963753 -0.07215913 216.83028093 -0.07355022 220.45092431 -0.07496213 C254.10818422 -0.08794142 287.76543813 -0.09305886 321.42269897 -0.08142853 C323.32552415 -0.08077157 323.32552415 -0.08077157 325.26679024 -0.08010134 C335.56828045 -0.07649453 345.86977058 -0.07265975 356.1712607 -0.06881041 C396.36583358 -0.05395882 436.56033852 -0.06274907 476.75490379 -0.09076595 C521.91545991 -0.12218411 567.07597581 -0.13716732 612.23654306 -0.12696594 C617.05029447 -0.12592916 621.86404589 -0.12494193 626.67779732 -0.12398243 C628.45569659 -0.1236091 628.45569659 -0.1236091 630.26951302 -0.12322823 C648.17015099 -0.11978658 666.07075347 -0.1291002 683.97138405 -0.14475346 C704.32313532 -0.16250918 724.67480013 -0.16267306 745.02654769 -0.1394018 C756.41747952 -0.12688848 767.80821276 -0.12817329 779.199133 -0.14928266 C786.80683832 -0.16199583 794.41439052 -0.15654549 802.02207916 -0.13629786 C806.35726875 -0.12526797 810.69206759 -0.12209548 815.02723892 -0.14097316 C818.97491092 -0.1579988 822.92185576 -0.15181725 826.86948341 -0.12750731 C828.28494365 -0.1227835 829.70046345 -0.12633699 831.11587106 -0.13942633 C840.45757451 -0.21979488 847.54723344 1.25137156 855.89552879 5.50615788 C855.89552879 6.16615788 855.89552879 6.82615788 855.89552879 7.50615788 C856.59677879 7.60928288 857.29802879 7.71240788 858.02052879 7.81865788 C861.28690527 8.5997479 863.94271399 9.92674531 866.89552879 11.50615788 C866.89552879 12.16615788 866.89552879 12.82615788 866.89552879 13.50615788 C867.47173973 13.60928288 868.04795067 13.71240788 868.64162254 13.81865788 C871.26582377 14.61910747 872.82369817 15.79540346 874.95802879 17.50615788 C877.39156481 19.44924997 878.89938711 20.50744398 881.89552879 21.50615788 C884.89552879 24.95060232 884.89552879 24.95060232 884.89552879 27.50615788 C885.79271629 27.66084538 885.79271629 27.66084538 886.70802879 27.81865788 C889.20811165 28.6043982 890.27087962 29.4753464 891.89552879 31.50615788 C891.89552879 32.16615788 891.89552879 32.82615788 891.89552879 33.50615788 C892.48849754 33.75365788 893.08146629 34.00115788 893.69240379 34.25615788 C896.229855 35.6958465 897.43596981 37.15767281 899.14552879 39.50615788 C899.66631004 40.20740788 900.18709129 40.90865788 900.72365379 41.63115788 C901.89552879 43.50615788 901.89552879 43.50615788 901.89552879 45.50615788 C902.55552879 45.50615788 903.21552879 45.50615788 903.89552879 45.50615788 C903.89552879 46.49615788 903.89552879 47.48615788 903.89552879 48.50615788 C904.55552879 48.50615788 905.21552879 48.50615788 905.89552879 48.50615788 C915.23294595 60.45917683 918.80982621 74.18231058 918.6421957 89.00755215 C918.64755852 90.51627709 918.65555069 92.02499451 918.66589829 93.53369349 C918.68662987 97.65312959 918.67038223 101.77168924 918.64773003 105.89108397 C918.62971604 110.38253475 918.64673612 114.87388044 918.6591925 119.36533129 C918.67620809 127.22830327 918.67103359 135.09101497 918.6511364 142.95397663 C918.62163096 154.64624287 918.626594 166.33831931 918.63838729 178.03060777 C918.65719758 197.70332852 918.64771533 217.37594128 918.62160492 237.04864979 C918.59575511 256.52921265 918.5810446 276.009727 918.58160782 295.49030781 C918.58163075 296.70241037 918.58165369 297.91451293 918.58167732 299.16334587 C918.58180005 304.08364082 918.58199689 309.00393576 918.58229476 313.9242307 C918.58501237 360.07040242 918.55518654 406.21650022 918.50900577 452.36264628 C918.46811932 493.36964138 918.4494226 534.37658398 918.451437 575.38359928 C918.45155823 578.0175171 918.45167931 580.65143493 918.45180023 583.28535275 C918.45186129 584.58750745 918.45192234 585.88966215 918.45198524 587.23127608 C918.45228762 593.78601967 918.45255937 600.34076326 918.45279598 606.89550686 C918.45284612 608.18863317 918.45289626 609.48175949 918.45294792 610.81407145 C918.45404306 645.0749009 918.44043183 679.33572377 918.42181629 713.59654772 C918.42115547 714.81500077 918.42049466 716.03345382 918.41981382 717.28882969 C918.41714912 722.18856662 918.41448393 727.08830355 918.41174095 731.98804044 C918.40225827 749.04178516 918.39773282 766.0955247 918.39640648 783.14927188 C918.39461631 805.12022873 918.3826546 827.09114224 918.35311211 849.06208055 C918.33775434 860.68466187 918.33054327 872.30717959 918.33510066 883.92977057 C918.33730101 891.68802773 918.32861482 899.44622292 918.31096923 907.20446021 C918.30120398 911.6280039 918.29617523 916.05141412 918.30425102 920.47496431 C918.31149127 924.49921111 918.30494138 928.52319104 918.28739668 932.54740395 C918.28349673 933.99400048 918.28460495 935.44062143 918.2913465 936.8872075 C918.32504202 944.75085183 917.90867285 951.20062739 914.89552879 958.50615788 C914.23552879 958.50615788 913.57552879 958.50615788 912.89552879 958.50615788 C912.81302879 959.33115788 912.73052879 960.15615788 912.64552879 961.00615788 C911.73105611 965.27369708 909.97329701 968.69852682 907.89552879 972.50615788 C907.23552879 972.50615788 906.57552879 972.50615788 905.89552879 972.50615788 C905.58615379 973.28990788 905.27677879 974.07365788 904.95802879 974.88115788 C903.89552879 977.50615788 903.89552879 977.50615788 902.89552879 979.50615788 C902.23552879 979.50615788 901.57552879 979.50615788 900.89552879 979.50615788 C900.73052879 980.33115788 900.56552879 981.15615788 900.39552879 982.00615788 C898.57755871 986.24808808 896.10939719 988.56235038 892.77052879 991.67412663 C890.70806658 993.56259393 890.70806658 993.56259393 888.89552879 996.50615788 C887.90552879 996.50615788 886.91552879 996.50615788 885.89552879 996.50615788 C885.89552879 997.16615788 885.89552879 997.82615788 885.89552879 998.50615788 C881.50262551 1003.15874017 875.94593794 1006.65022014 870.58302879 1010.06865788 C869.83754784 1010.5460944 869.09206688 1011.02353092 868.32399559 1011.51543522 C853.49774718 1020.90598274 853.49774718 1020.90598274 845.89552879 1021.50615788 C845.89552879 1022.16615788 845.89552879 1022.82615788 845.89552879 1023.50615788 C842.67925291 1024.57824984 840.38419186 1024.63084759 837.00217611 1024.63035637 C835.76126202 1024.63260366 834.52034793 1024.63485096 833.24183038 1024.63716635 C831.85449649 1024.63460036 830.46716277 1024.63194344 829.07982922 1024.6292057 C827.60795896 1024.62994487 826.13608888 1024.63112295 824.66421929 1024.6327022 C820.59149495 1024.63578505 816.51879538 1024.63258469 812.44607287 1024.62842407 C808.02596412 1024.62500176 803.60585799 1024.62735839 799.18574876 1024.62900156 C791.42972387 1024.63107968 783.67370664 1024.62942407 775.91768265 1024.62536335 C764.38465891 1024.61934187 752.85164001 1024.61902628 741.31861499 1024.61990534 C721.92062488 1024.62122099 702.52263817 1024.61787119 683.12464905 1024.61188793 C663.91049559 1024.60597653 644.69634354 1024.60212312 625.48218918 1024.60103512 C624.28875082 1024.60096638 623.09531246 1024.60089764 621.8657093 1024.60082682 C615.80515751 1024.6004885 609.74460572 1024.60018711 603.68405392 1024.59989994 C560.72614289 1024.59779798 517.76823371 1024.59105629 474.81032372 1024.58159733 C433.07008944 1024.57241708 391.32985567 1024.56533142 349.58962059 1024.56108952 C348.30363303 1024.56095799 347.01764547 1024.56082646 345.69268859 1024.56069095 C332.77860011 1024.55937246 319.86451164 1024.55809664 306.95042316 1024.55685209 C280.64153155 1024.55431569 254.33263996 1024.55149444 228.0237484 1024.54850101 C226.8140343 1024.54836372 225.60432021 1024.54822643 224.35794812 1024.54808498 C143.53714091 1024.53888 62.71633472 1024.5230343 -18.10447121 1024.50615788 C-18.10447121 1023.84615788 -18.10447121 1023.18615788 -18.10447121 1022.50615788 C-18.93978371 1022.467486 -18.93978371 1022.467486 -19.79197121 1022.42803288 C-24.96477493 1022.04356773 -28.77004688 1021.01551515 -33.28025246 1018.44365788 C-35.20301453 1017.45551462 -36.99591173 1016.95300492 -39.10447121 1016.50615788 C-39.10447121 1015.84615788 -39.10447121 1015.18615788 -39.10447121 1014.50615788 C-39.80572121 1014.40303288 -40.50697121 1014.29990788 -41.22947121 1014.19365788 C-44.49584768 1013.41256785 -47.15165641 1012.08557044 -50.10447121 1010.50615788 C-50.10447121 1009.84615788 -50.10447121 1009.18615788 -50.10447121 1008.50615788 C-51.16988136 1008.13297428 -51.16988136 1008.13297428 -52.25681496 1007.75225163 C-63.88018663 1002.66603 -76.25897612 990.9718667 -83.10447121 980.50615788 C-84.0641299 979.39196504 -85.03771713 978.28966825 -86.02243996 977.19756413 C-89.4493999 973.27472448 -91.92710452 969.00144438 -94.41697121 964.44365788 C-94.85847511 963.66699772 -95.29997902 962.89033756 -95.75486183 962.09014225 C-98.0766752 957.89096676 -99.69159068 954.37503203 -100.10447121 949.50615788 C-100.76447121 949.50615788 -101.42447121 949.50615788 -102.10447121 949.50615788 C-102.59947121 945.05115788 -102.59947121 945.05115788 -103.10447121 940.50615788 C-103.76447121 940.50615788 -104.42447121 940.50615788 -105.10447121 940.50615788 C-105.97098158 936.76659685 -106.23057834 933.31069939 -106.23327237 929.47554731 C-106.23654457 928.25497082 -106.23981676 927.03439433 -106.24318811 925.77683067 C-106.24177809 924.42286577 -106.24027608 923.06890097 -106.23869228 921.71493626 C-106.24064551 920.27025016 -106.24303447 918.82556461 -106.24582025 917.38087988 C-106.25222701 913.39287306 -106.25238134 909.40488636 -106.25154284 905.41687537 C-106.25171221 901.08492602 -106.25761685 896.7529839 -106.26278371 892.42103815 C-106.27211698 883.82096034 -106.27603298 875.22088769 -106.27830267 866.62080545 C-106.28126284 856.32288556 -106.28995915 846.02497251 -106.29871695 835.72705621 C-106.31956971 810.83491424 -106.33003236 785.94277108 -106.33884656 761.05062241 C-106.34305178 749.27744688 -106.34827393 737.50427185 -106.35353109 725.73109675 C-106.37142177 685.43904931 -106.3864184 645.14700172 -106.39385128 604.8549509 C-106.39432604 602.32499817 -106.39480193 599.79504544 -106.39527894 597.2650927 C-106.39551532 596.0104503 -106.39575169 594.75580789 -106.39599523 593.46314602 C-106.39719645 587.10638955 -106.39841189 580.74963309 -106.39963722 574.39287663 C-106.39987737 573.13135401 -106.40011752 571.86983139 -106.40036495 570.57008081 C-106.40825915 529.66181853 -106.43169325 488.75358523 -106.46419317 447.84533561 C-106.49848226 404.60616826 -106.51820156 361.36701787 -106.52149552 318.1278367 C-106.52191307 313.38217353 -106.52239263 308.63651037 -106.5229187 303.89084721 C-106.52304189 302.7223109 -106.52316508 301.55377459 -106.52329201 300.3498281 C-106.52562515 281.53562203 -106.54129147 262.7214496 -106.56176055 243.90725552 C-106.58200507 224.99964862 -106.58750234 206.09208216 -106.57798991 187.18446642 C-106.57276966 175.94933467 -106.57867723 164.71433745 -106.60052458 153.47922503 C-106.61401731 145.97378972 -106.61296916 138.46844718 -106.60012263 130.96301097 C-106.59321589 126.68692295 -106.59259089 122.41109242 -106.60968272 118.13502723 C-106.62512543 114.23976012 -106.62192478 110.34495664 -106.60427244 106.44970298 C-106.60113987 105.05427407 -106.6046128 103.65880934 -106.61576418 102.26342148 C-106.70857788 89.83312607 -103.91296277 79.12250016 -98.16697121 68.13115788 C-97.84535011 67.48533756 -97.52372902 66.83951725 -97.19236183 66.17412663 C-94.87348875 61.62785474 -92.12052048 57.62033247 -89.10447121 53.50615788 C-88.39772492 52.19362905 -87.70483849 50.87062896 -87.10447121 49.50615788 C-86.44447121 49.50615788 -85.78447121 49.50615788 -85.10447121 49.50615788 C-85.02197121 48.92865788 -84.93947121 48.35115788 -84.85447121 47.75615788 C-83.89157261 44.86746208 -82.27718289 43.61496627 -80.10447121 41.50615788 C-79.67908058 40.74818913 -79.25368996 39.99022038 -78.81540871 39.20928288 C-76.77885212 35.99170946 -74.42199989 33.7498835 -71.60447121 31.19365788 C-70.16587746 29.86914616 -70.16587746 29.86914616 -68.69822121 28.51787663 C-66.10447121 26.50615788 -66.10447121 26.50615788 -63.10447121 26.50615788 C-62.71944435 25.59374332 -62.71944435 25.59374332 -62.32663918 24.66289616 C-60.96212875 22.25496864 -59.8920704 21.42085172 -57.54978371 19.99834538 C-56.50370949 19.35445866 -56.50370949 19.35445866 -55.43650246 18.69756413 C-54.70818214 18.26315006 -53.97986183 17.828736 -53.22947121 17.38115788 C-52.50888527 16.93900944 -51.78829933 16.496861 -51.04587746 16.04131413 C-41.9655456 10.50615788 -41.9655456 10.50615788 -38.10447121 10.50615788 C-38.10447121 9.84615788 -38.10447121 9.18615788 -38.10447121 8.50615788 C-35.13447121 7.84615788 -32.16447121 7.18615788 -29.10447121 6.50615788 C-29.10447121 5.84615788 -29.10447121 5.18615788 -29.10447121 4.50615788 C-19.21909939 1.15879488 -10.47853072 -0.07377385 0 0 Z M402.88771629 256.45537663 C401.83970848 257.81082584 401.83970848 257.81082584 400.77052879 259.19365788 C399.57750145 260.71926334 399.57750145 260.71926334 398.36037254 262.27568913 C397.53836503 263.35221212 396.71674413 264.42903045 395.89552879 265.50615788 C395.15431786 266.45877506 394.41310692 267.41139225 393.64943504 268.39287663 C391.04676299 271.75045525 388.46900702 275.12618805 385.89552879 278.50615788 C384.6155862 280.18584943 383.33563787 281.86553662 382.05568504 283.54522038 C379.96617697 286.2877152 377.87702037 289.03047471 375.78883934 291.77398014 C372.08904612 296.6337038 368.37824691 301.48418586 364.64552879 306.31865788 C360.51861984 311.66912275 356.47098994 317.07577594 352.43019676 322.4912653 C349.55213715 326.33590632 346.63140369 330.13922018 343.64455223 333.8999567 C341.83493681 336.1799821 340.04380798 338.4741314 338.25539207 340.77080631 C337.32602712 341.95678945 336.38912892 343.13689776 335.44582176 344.31182194 C328.78918389 352.18835091 328.78918389 352.18835091 326.02052879 361.81865788 C326.77583429 368.19679316 328.97170305 374.16967715 333.89552879 378.44365788 C340.56724068 383.03045979 345.85351756 383.1201287 353.89552879 382.50615788 C362.19802933 379.99974262 368.05801492 371.5925661 373.05959129 364.87725163 C375.55247976 361.65771269 378.24560702 358.59773327 380.89552879 355.50615788 C381.22552879 425.13615788 381.55552879 494.76615788 381.89552879 566.50615788 C398.06552879 566.50615788 414.23552879 566.50615788 430.89552879 566.50615788 C431.22552879 496.54615788 431.55552879 426.58615788 431.89552879 354.50615788 C442.89552879 367.50615788 442.89552879 367.50615788 446.70802879 372.50615788 C450.1044862 376.93702797 453.47129926 380.69808137 458.89552879 382.50615788 C466.70150625 383.36027452 472.74485136 383.21370201 479.08693504 378.29131413 C483.92442501 373.51651302 485.4248047 368.15933003 486.58302879 361.63115788 C486.56004047 354.68868361 481.34446527 349.43909896 477.23781395 344.25127506 C475.81661958 342.40356729 474.50503869 340.49979049 473.18849754 338.57647038 C472.43181786 337.56326725 471.67513817 336.55006413 470.89552879 335.50615788 C470.23552879 335.50615788 469.57552879 335.50615788 468.89552879 335.50615788 C468.65705223 334.80361881 468.41857567 334.10107975 468.17287254 333.37725163 C466.66998315 329.99919748 464.74707198 327.47299587 462.45802879 324.56865788 C461.79432274 323.72005192 461.79432274 323.72005192 461.11720848 322.85430241 C459.28047529 320.50966021 457.42831423 318.17741624 455.57668114 315.84453678 C454.26482688 314.19123423 452.95455271 312.53670229 451.64552879 310.88115788 C451.19854637 310.3163068 450.75156395 309.75145573 450.29103661 309.16948795 C445.68041312 303.3032498 441.28753782 297.28065945 436.88136864 291.26030827 C433.35202916 286.44894376 429.74257015 281.73558491 425.96974754 277.11162663 C422.04207783 272.17800007 418.30302406 267.09915138 414.53224754 262.04522038 C414.06737938 261.4280817 413.60251122 260.81094303 413.12355614 260.17510319 C412.13157155 258.82695077 411.20053836 257.43408018 410.29006004 256.02959538 C409.82986473 255.526861 409.36966942 255.02412663 408.89552879 254.50615788 C404.90746947 254.04178458 404.90746947 254.04178458 402.88771629 256.45537663 Z M333.89552879 404.50615788 C331.8194643 406.61867057 331.8194643 406.61867057 329.89552879 409.50615788 C329.09929867 410.61729735 328.30238852 411.72794976 327.50490379 412.83818913 C327.08273582 413.43454166 326.66056786 414.0308942 326.22560692 414.64531803 C323.92106139 417.86948213 321.52931218 421.02789058 319.14552879 424.19365788 C318.64795067 424.85728336 318.15037254 425.52090885 317.63771629 426.2046442 C313.74953011 431.3874533 309.82989752 436.54583878 305.89552879 441.69365788 C305.08583641 442.7536298 305.08583641 442.7536298 304.25978661 443.8350153 C303.74770653 444.50379704 303.23562645 445.17257877 302.70802879 445.86162663 C302.22664452 446.49310612 301.74526024 447.12458561 301.24928856 447.77520084 C300.06257501 449.29256768 298.80995497 450.75790939 297.54787254 452.21318913 C294.91199946 455.87100827 295.24312951 459.17516986 295.89552879 463.50615788 C297.1424997 466.4365395 298.11898534 467.92375028 300.64552879 469.81865788 C304.02839072 470.85231013 306.3630417 470.98513918 309.89552879 470.50615788 C315.34621543 467.24039466 318.17420921 462.71600529 321.89552879 457.50615788 C322.22552879 493.47615788 322.55552879 529.44615788 322.89552879 566.50615788 C331.47552879 566.50615788 340.05552879 566.50615788 348.89552879 566.50615788 C349.22552879 530.53615788 349.55552879 494.56615788 349.89552879 457.50615788 C353.19552879 461.46615788 356.49552879 465.42615788 359.89552879 469.50615788 C362.95982655 471.03830675 365.51209299 470.73554335 368.89552879 470.50615788 C372.4342282 468.85476482 373.70623032 467.79010558 375.89552879 464.50615788 C377.02342476 460.93686683 376.86538111 458.11308482 375.89552879 454.50615788 C373.50690095 450.51689102 370.34896732 447.08539988 367.32521629 443.57256413 C363.84745143 439.5315547 360.79398786 435.2677408 357.77052879 430.88115788 C352.69436768 423.57609454 347.4040698 416.49162654 341.89552879 409.50615788 C341.22521629 408.56256413 340.55490379 407.61897038 339.86427879 406.64678288 C338.88974754 405.5871735 338.88974754 405.5871735 337.89552879 404.50615788 C336.57552879 404.50615788 335.25552879 404.50615788 333.89552879 404.50615788 Z M475.89552879 404.50615788 C473.6975434 406.63712198 473.6975434 406.63712198 471.45802879 409.50615788 C471.02192284 410.04305241 470.58581688 410.57994694 470.13649559 411.133111 C465.12701293 417.35800623 460.37040272 423.77654407 455.61379051 430.19512272 C453.70705389 432.75965368 451.78872728 435.31523159 449.86818504 437.86943913 C449.18780174 438.774361 448.50741844 439.67928288 447.80641747 440.61162663 C446.46958478 442.38915401 445.1325155 444.16650349 443.795187 445.94365788 C443.18634666 446.75447819 442.57750633 447.5652985 441.95021629 448.40068913 C441.40864891 449.12103336 440.86708153 449.8413776 440.30910301 450.58355045 C437.54271581 454.34612373 436.40421501 456.66710589 436.50099754 461.43584538 C437.20226938 465.11578668 439.25187203 466.92544532 441.89552879 469.50615788 C445.27857573 471.19768134 448.30123186 471.47643498 451.89552879 470.50615788 C456.28539998 467.10732279 459.82273051 463.1153553 462.89552879 458.50615788 C463.22552879 494.14615788 463.55552879 529.78615788 463.89552879 566.50615788 C472.80552879 566.50615788 481.71552879 566.50615788 490.89552879 566.50615788 C491.22552879 530.86615788 491.55552879 495.22615788 491.89552879 458.50615788 C494.86552879 462.13615788 497.83552879 465.76615788 500.89552879 469.50615788 C504.00506259 471.06092477 506.4581964 470.79260224 509.89552879 470.50615788 C513.00694168 468.86239258 515.18446596 467.47578901 517.27052879 464.63115788 C518.11177268 461.77092866 518.12286881 459.48357874 517.89552879 456.50615788 C516.60395009 453.98447091 516.60395009 453.98447091 514.64552879 451.63115788 C513.91591942 450.68240788 513.18631004 449.73365788 512.43459129 448.75615788 C512.02885887 448.23924381 511.62312645 447.72232975 511.20509911 447.18975163 C509.28085184 444.71592441 507.41842802 442.19713686 505.54811668 439.68242741 C500.53117894 432.9456029 495.43548865 426.27106179 490.28615379 419.63506413 C488.61774785 417.45141517 486.98483395 415.26236393 485.37990379 413.03350163 C484.97280174 412.4730817 484.56569969 411.91266178 484.14626122 411.33525944 C483.02544644 409.78679868 481.91521635 408.23069232 480.80568504 406.67412663 C480.17533348 405.95869694 479.54498192 405.24326725 478.89552879 404.50615788 C477.90552879 404.50615788 476.91552879 404.50615788 475.89552879 404.50615788 Z M305.08302879 627.56865788 C302.51806163 630.38881844 302.51806163 630.38881844 302.95802879 634.19365788 C303.61818737 637.55403069 303.61818737 637.55403069 305.89552879 639.50615788 C311.31508755 640.17954953 311.31508755 640.17954953 315.95802879 637.94365788 C317.31516763 634.41509691 316.88068757 632.11840671 315.89552879 628.50615788 C314.20388657 626.46586192 314.20388657 626.46586192 311.89552879 625.50615788 C307.85184852 625.11191543 307.85184852 625.11191543 305.08302879 627.56865788 Z M484.58302879 632.13115788 C481.98149639 635.79257386 481.66580325 638.16247234 481.33302879 642.63115788 C481.24923973 643.726861 481.16545067 644.82256413 481.07912254 645.95147038 C481.01853661 646.79451725 480.95795067 647.63756413 480.89552879 648.50615788 C478.58552879 648.83615788 476.27552879 649.16615788 473.89552879 649.50615788 C473.89552879 652.47615788 473.89552879 655.44615788 473.89552879 658.50615788 C476.53552879 658.50615788 479.17552879 658.50615788 481.89552879 658.50615788 C481.89552879 670.71615788 481.89552879 682.92615788 481.89552879 695.50615788 C485.52552879 695.50615788 489.15552879 695.50615788 492.89552879 695.50615788 C492.89552879 683.29615788 492.89552879 671.08615788 492.89552879 658.50615788 C497.18552879 658.50615788 501.47552879 658.50615788 505.89552879 658.50615788 C505.89552879 655.53615788 505.89552879 652.56615788 505.89552879 649.50615788 C501.60552879 649.50615788 497.31552879 649.50615788 492.89552879 649.50615788 C493.51075496 640.03167494 493.51075496 640.03167494 495.21974754 637.69756413 C497.97734901 635.73703162 500.62633212 636.27264383 503.89552879 636.50615788 C504.88552879 636.83615788 505.87552879 637.16615788 506.89552879 637.50615788 C508.9298841 633.77650648 509.89552879 631.83710746 509.89552879 627.50615788 C500.3073218 623.3599062 491.55547899 624.21648468 484.58302879 632.13115788 Z M512.89552879 627.50615788 C512.82768248 635.37319939 512.7726722 643.24008029 512.74009228 651.10733414 C512.72445347 654.76064986 512.70324831 658.41375459 512.66921043 662.06694889 C512.63655255 665.59421003 512.61866235 669.12126855 512.61089706 672.64866924 C512.60267746 674.64560096 512.57926819 676.64245146 512.55563927 678.63926029 C512.55541267 679.86014851 512.55518608 681.08103672 512.55495262 682.33892155 C512.54829079 683.41147694 512.54162895 684.48403233 512.53476524 685.58908939 C513.05216746 689.77270963 514.75011199 692.39228856 517.73927879 695.29912663 C520.45266387 696.8180324 522.30020294 696.87393155 525.39552879 696.81865788 C526.33396629 696.81479069 527.27240379 696.8109235 528.23927879 696.80693913 C531.23765079 696.62154367 531.23765079 696.62154367 534.89552879 694.50615788 C534.56552879 691.53615788 534.23552879 688.56615788 533.89552879 685.50615788 C532.19396629 685.32053288 532.19396629 685.32053288 530.45802879 685.13115788 C529.28240379 684.92490788 528.10677879 684.71865788 526.89552879 684.50615788 C525.61834074 681.95178176 525.73591415 680.09027006 525.69020653 677.23027897 C525.67026131 676.12928867 525.65031609 675.02829838 525.62976646 673.89394474 C525.61305397 672.70120945 525.59634148 671.50847416 525.57912254 670.27959538 C525.55834145 669.0616428 525.53756035 667.84369022 525.51614952 666.58882999 C525.45060296 662.68633167 525.39174524 658.78376437 525.33302879 654.88115788 C525.28984844 652.24052565 525.24623432 649.59990048 525.20216942 646.95928288 C525.09491632 640.47497912 524.99366326 633.99060578 524.89552879 627.50615788 C520.93552879 627.50615788 516.97552879 627.50615788 512.89552879 627.50615788 Z M387.89552879 630.50615788 C387.89552879 636.11615788 387.89552879 641.72615788 387.89552879 647.50615788 C385.58552879 647.50615788 383.27552879 647.50615788 380.89552879 647.50615788 C380.89552879 650.47615788 380.89552879 653.44615788 380.89552879 656.50615788 C383.20552879 656.50615788 385.51552879 656.50615788 387.89552879 656.50615788 C387.86934471 657.47440495 387.84316063 658.44265202 387.81618309 659.44023991 C387.72529954 663.05181884 387.6681433 666.66329791 387.62087059 670.27568913 C387.59581252 671.83543266 387.56175578 673.39505977 387.51833153 674.95440006 C387.45728687 677.20371631 387.42923453 679.45147348 387.40724754 681.70147038 C387.38144112 682.39233738 387.35563469 683.08320438 387.32904625 683.79500675 C387.32684633 687.64099775 387.92220031 689.99392026 390.30104637 692.93145084 C393.94176379 696.54441837 395.62894029 696.66246019 400.64552879 696.69365788 C405.11304602 696.66680981 408.75528934 696.3462643 412.89552879 694.50615788 C412.40052879 689.55615788 412.40052879 689.55615788 411.89552879 684.50615788 C410.45177879 684.71240788 409.00802879 684.91865788 407.52052879 685.13115788 C405.05959129 685.48272038 405.05959129 685.48272038 402.89552879 685.50615788 C400.17889087 682.78951995 400.58799758 681.20421135 400.48146629 677.40459538 C400.44279442 676.19287663 400.40412254 674.98115788 400.36427879 673.73272038 C400.33334129 672.46170475 400.30240379 671.19068913 400.27052879 669.88115788 C400.23185692 668.60240788 400.19318504 667.32365788 400.15334129 666.00615788 C400.0588183 662.83963771 399.97326523 659.67312748 399.89552879 656.50615788 C403.52552879 656.50615788 407.15552879 656.50615788 410.89552879 656.50615788 C410.89552879 653.20615788 410.89552879 649.90615788 410.89552879 646.50615788 C407.26552879 646.50615788 403.63552879 646.50615788 399.89552879 646.50615788 C399.89552879 641.22615788 399.89552879 635.94615788 399.89552879 630.50615788 C395.93552879 630.50615788 391.97552879 630.50615788 387.89552879 630.50615788 Z M159.89552879 654.50615788 C159.89552879 652.19615788 159.89552879 649.88615788 159.89552879 647.50615788 C156.59552879 647.50615788 153.29552879 647.50615788 149.89552879 647.50615788 C149.89552879 669.94615788 149.89552879 692.38615788 149.89552879 715.50615788 C153.85552879 715.50615788 157.81552879 715.50615788 161.89552879 715.50615788 C162.22552879 706.59615788 162.55552879 697.68615788 162.89552879 688.50615788 C164.87552879 690.81615788 166.85552879 693.12615788 168.89552879 695.50615788 C173.79233756 697.95456226 181.13264016 697.20466595 186.32131004 695.89287663 C192.59332859 693.12831699 196.49943094 687.95082544 199.03224754 681.70147038 C201.1079432 674.01857876 201.1976848 665.27066395 197.89552879 657.94365788 C194.80018468 652.62214937 190.34633576 649.23156136 184.89552879 646.50615788 C173.57501436 645.5479523 167.99796424 646.37989174 159.89552879 654.50615788 Z M210.89552879 646.50615788 C210.89552879 662.67615788 210.89552879 678.84615788 210.89552879 695.50615788 C214.52552879 695.50615788 218.15552879 695.50615788 221.89552879 695.50615788 C221.88916405 694.59849674 221.8827993 693.69083561 221.87624168 692.75566959 C221.86909291 689.36628633 221.89326413 685.98005847 221.9382534 682.59111881 C221.95134035 681.12861212 221.95217555 679.66593977 221.94020653 678.2034235 C221.85398775 666.14921656 221.85398775 666.14921656 224.34255028 662.22344303 C228.72210028 658.27977241 233.19285336 657.38349256 238.89552879 656.50615788 C238.89552879 653.20615788 238.89552879 649.90615788 238.89552879 646.50615788 C232.87442107 645.97845167 232.87442107 645.97845167 227.58302879 648.69365788 C225.18513286 651.20308385 223.4758827 653.4332475 221.89552879 656.50615788 C221.56552879 653.20615788 221.23552879 649.90615788 220.89552879 646.50615788 C217.59552879 646.50615788 214.29552879 646.50615788 210.89552879 646.50615788 Z M248.89552879 653.50615788 C243.4579438 661.07282544 242.06722541 667.17923486 242.89552879 676.50615788 C244.90628032 684.06991751 248.18582239 689.93696785 254.77052879 694.31865788 C261.68368953 697.91760152 269.30855602 697.50955817 276.77052879 695.87725163 C284.54616949 693.23400791 288.72704873 688.1436083 292.83302879 681.25615788 C295.03184235 673.49563944 294.96080388 665.79191166 291.22365379 658.54131413 C287.34966917 652.6050024 282.76710826 648.58351123 275.89552879 646.50615788 C273.10735148 646.22651767 270.60529554 646.08367852 267.83302879 646.13115788 C267.15175926 646.11955631 266.47048973 646.10795475 265.76857567 646.09600163 C258.8726587 646.13574754 253.82740645 648.82719702 248.89552879 653.50615788 Z M303.89552879 646.50615788 C303.56552879 665.64615788 303.23552879 684.78615788 302.89552879 704.50615788 C298.96324841 706.47229807 295.01771067 705.53670334 290.89552879 704.50615788 C290.23552879 707.80615788 289.57552879 711.10615788 288.89552879 714.50615788 C294.26843381 717.24976895 298.8479474 718.4993738 304.89552879 717.50615788 C310.1990516 714.80436324 313.99385178 711.21118892 315.89552879 705.50615788 C315.98418055 703.5889694 316.01314636 701.66879875 316.00905418 699.74956608 C316.00894089 697.97806942 316.00894089 697.97806942 316.0088253 696.17078495 C316.00366402 694.89571583 315.99850273 693.62064671 315.99318504 692.30693913 C315.9917701 691.00161732 315.99035515 689.69629551 315.98889732 688.3514185 C315.9850826 684.88426131 315.97526123 681.41714614 315.96419334 677.95000553 C315.95395677 674.41078605 315.94939489 670.87155977 315.94435692 667.33232975 C315.93363802 660.39025348 315.91604967 653.44821202 315.89552879 646.50615788 C311.93552879 646.50615788 307.97552879 646.50615788 303.89552879 646.50615788 Z M332.09084129 653.44365788 C326.29738249 660.76171109 324.95151409 667.2502088 325.89552879 676.50615788 C328.00576905 684.38148749 331.25053096 690.12819677 338.39552879 694.25615788 C344.840648 697.74358539 351.34765299 698.7645175 358.49318504 696.78740788 C363.78937696 694.80632855 367.98373 692.61354661 371.89552879 688.50615788 C373.31143251 685.35114623 373.31143251 685.35114623 373.89552879 682.50615788 C369.7738419 680.87665375 367.18852522 680.24351187 362.89552879 681.50615788 C362.56552879 682.49615788 362.23552879 683.48615788 361.89552879 684.50615788 C356.84743159 686.96548728 351.3996783 687.23329468 345.89552879 686.50615788 C340.61943465 683.69972482 340.44078621 681.44509185 337.89552879 675.50615788 C350.76552879 675.50615788 363.63552879 675.50615788 376.89552879 675.50615788 C376.89552879 666.48265903 375.8301376 659.56353051 369.89552879 652.50615788 C358.868312 644.1163785 342.07463337 642.72512785 332.09084129 653.44365788 Z M423.05959129 654.76787663 C418.05319632 661.87789765 417.11528704 667.86612786 417.89552879 676.50615788 C419.66665338 684.65572437 424.09570858 689.8276981 430.89552879 694.50615788 C437.52673687 697.84364709 445.79670834 697.73197334 452.82131004 695.63115788 C459.80899044 692.40770592 464.64173612 687.8067552 467.77052879 680.75615788 C469.95428982 674.04889187 470.02488284 666.02281988 467.20412254 659.49053288 C463.08567215 653.24524093 457.18233926 648.28737821 449.89552879 646.50615788 C439.00065879 645.33199572 430.37793702 645.75229752 423.05959129 654.76787663 Z M541.39552879 656.50615788 C539.08664093 659.89933009 538.05602361 662.33329259 537.89552879 666.50615788 C537.82334129 667.39303288 537.75115379 668.27990788 537.67677879 669.19365788 C537.24592437 677.6384046 538.93631653 683.85924125 544.46974754 690.35381413 C549.56842936 695.19102508 555.43986696 697.12917658 562.33302879 697.88115788 C572.2933385 696.83270422 578.87183665 693.58000035 585.27834129 685.83428288 C589.41398917 679.29822399 588.62866444 670.90624583 587.89552879 663.50615788 C586.26873483 656.82613515 581.43637226 652.32387125 575.89552879 648.50615788 C563.42804118 642.02219398 549.77766344 646.29840608 541.39552879 656.50615788 Z M623.89552879 646.50615788 C620.8358903 653.75721966 618.38131166 661.08898908 616.14552879 668.63115788 C615.82970848 669.68303288 615.51388817 670.73490788 615.18849754 671.81865788 C614.42010355 674.37997118 613.6558606 676.94244211 612.89552879 679.50615788 C611.14112979 676.26973676 610.0471095 673.01919519 608.98537254 669.49834538 C608.63539207 668.34721256 608.28541161 667.19607975 607.92482567 666.01006413 C607.5645327 664.81252506 607.20423973 663.614986 606.83302879 662.38115788 C606.11452065 660.00308668 605.39454383 657.62545857 604.67287254 655.24834538 C604.3556826 654.19502018 604.03849266 653.14169498 603.7116909 652.05645084 C602.98152145 649.55038211 602.98152145 649.55038211 601.89552879 647.50615788 C598.26552879 647.50615788 594.63552879 647.50615788 590.89552879 647.50615788 C593.53656786 657.70890879 596.80713611 667.68190859 600.08302879 677.69365788 C600.6477225 679.42600134 601.21217752 681.15842264 601.77638817 682.8909235 C603.14668561 687.09690367 604.5202061 691.30181837 605.89552879 695.50615788 C609.85552879 695.50615788 613.81552879 695.50615788 617.89552879 695.50615788 C618.22166161 694.38338444 618.54779442 693.260611 618.88381004 692.10381413 C623.14223678 677.50023198 623.14223678 677.50023198 625.21974754 671.56084538 C626.20383678 668.56875904 627.04138513 665.53745923 627.89552879 662.50615788 C628.09186913 663.18605778 628.28820946 663.86595768 628.4904995 664.56646061 C629.39446161 667.6927404 630.30122658 670.81820075 631.20802879 673.94365788 C631.51675926 675.01293522 631.82548973 676.08221256 632.14357567 677.18389225 C633.93226539 683.34075055 635.82214458 689.43911669 637.89552879 695.50615788 C641.85552879 695.50615788 645.81552879 695.50615788 649.89552879 695.50615788 C650.27644676 694.25512272 650.27644676 694.25512272 650.66506004 692.97881413 C653.01753926 685.28700007 655.4715848 677.64726712 658.08693504 670.04131413 C660.74188927 662.26151795 663.01568942 654.52020995 664.89552879 646.50615788 C661.26552879 646.50615788 657.63552879 646.50615788 653.89552879 646.50615788 C650.42832708 657.4684169 647.10642448 668.46614206 643.89552879 679.50615788 C640.8358903 672.25509609 638.38131166 664.92332667 636.14552879 657.38115788 C635.82970848 656.32928288 635.51388817 655.27740788 635.18849754 654.19365788 C634.42010355 651.63234457 633.6558606 649.06987364 632.89552879 646.50615788 C629.92552879 646.50615788 626.95552879 646.50615788 623.89552879 646.50615788 Z " fill="#FAFAFA" transform="translate(106.10447120666504,-0.5061578750610352)"/>
<path d="M0 0 C2.94411917 0.33102532 4.57499505 0.58932106 6.73828125 2.6796875 C7.25777344 3.40414063 7.77726563 4.12859375 8.3125 4.875 C8.90659668 5.68710937 9.50069336 6.49921875 10.11279297 7.3359375 C10.73557129 8.21507812 11.35834961 9.09421875 12 10 C13.33507439 11.83396197 14.67102734 13.66728465 16.0078125 15.5 C17.00989746 16.88638672 17.00989746 16.88638672 18.03222656 18.30078125 C20.91301831 22.25239832 23.88876667 26.12781963 26.875 30 C30.47205969 34.68356475 34.04139482 39.38383503 37.5625 44.125 C40.96605111 48.68600875 44.49111547 53.13311686 48.0625 57.5625 C61.64278305 74.44180233 61.64278305 74.44180233 64 81 C64.66 81 65.32 81 66 81 C68.09860199 83.53761988 69.93369892 86.22606976 71.82421875 88.921875 C73.19600755 90.86257442 74.61056276 92.77437228 76.08203125 94.640625 C79.71404306 99.34522685 81.96542873 102.77134681 81.4296875 108.8359375 C79.94463034 116.3152254 77.13524617 121.53182748 71.0625 126.3125 C65.86559399 129.07968372 59.69638062 128.77582607 54 128 C49.5110561 126.21787246 46.76424049 124.07271715 43.625 120.4375 C42.86058594 119.55578125 42.09617187 118.6740625 41.30859375 117.765625 C37.80170626 113.56448059 34.37860487 109.30464647 31 105 C29.68 103.35 28.36 101.7 27 100 C26.67 169.96 26.34 239.92 26 312 C9.83 312 -6.34 312 -23 312 C-23.33 242.37 -23.66 172.74 -24 101 C-30.48702453 108.17345181 -30.48702453 108.17345181 -36.5625 115.6875 C-40.40812832 120.73432691 -44.86037909 125.9534597 -51 128 C-58.25882441 128.69509947 -64.41528936 128.92072524 -70.41796875 124.421875 C-75.86574026 119.52560629 -77.96228922 114.5337623 -78.625 107.3125 C-78.45914629 100.36737596 -74.25405361 96.14491873 -70 91 C-68.78666068 89.42226495 -67.57346006 87.84439646 -66.36914062 86.25976562 C-64.26353437 83.4930585 -62.12905799 80.74867265 -60 78 C-54.69717158 71.14201516 -49.43516589 64.25980546 -44.25 57.3125 C-39.32606279 50.71774186 -34.29407715 44.21342826 -29.22509766 37.72973633 C-25.2981593 32.69688605 -21.43960645 27.6184175 -17.625 22.5 C-13.20233841 16.5666488 -8.66987164 10.74181945 -4 5 C-2.66552092 3.33425058 -1.33190804 1.6678059 0 0 Z " fill="#36877F" transform="translate(511,254)"/>
<path d="M0 0 C2.38423827 0.3033257 3.66911004 0.67408322 5.39697266 2.37597656 C5.8151123 2.95831055 6.23325195 3.54064453 6.6640625 4.140625 C7.37985474 5.11854004 7.37985474 5.11854004 8.11010742 6.11621094 C8.85997925 7.17243652 8.85997925 7.17243652 9.625 8.25 C10.69584175 9.71931355 11.76746741 11.18805608 12.83984375 12.65625 C13.37206543 13.39101563 13.90428711 14.12578125 14.45263672 14.8828125 C16.6437954 17.88087626 18.90958974 20.81764752 21.1875 23.75 C25.84814162 29.79240235 30.45502 35.8701469 35 42 C35.69867187 42.91136719 36.39734375 43.82273437 37.1171875 44.76171875 C38.08011719 46.05529297 38.08011719 46.05529297 39.0625 47.375 C39.63097656 48.12523437 40.19945312 48.87546875 40.78515625 49.6484375 C42.32250893 52.62427774 42.29629655 54.69135522 42 58 C40.17613802 62.12768764 38.14623807 64.20957902 34 66 C30.06986015 66.49126748 27.87936877 66.51475245 24.4375 64.5 C21.30302602 61.28515489 18.69400376 57.59200501 16 54 C15.67 89.64 15.34 125.28 15 162 C6.09 162 -2.82 162 -12 162 C-12.33 126.36 -12.66 90.72 -13 54 C-15.97 57.3 -18.94 60.6 -22 64 C-24 66 -24 66 -27.75 66.4375 C-32.62236883 66.33987512 -34.66380354 64.41756711 -38 61 C-39.64768248 57.70463503 -39.64503063 54.54690237 -39 51 C-37.33982216 47.73760935 -35.15181578 44.9802921 -32.875 42.125 C-32.24625977 41.30563965 -31.61751953 40.4862793 -30.96972656 39.64208984 C-28.99753718 37.08040333 -27.00003612 34.53997727 -25 32 C-23.76651422 30.40757692 -22.53469349 28.81386244 -21.3046875 27.21875 C-18.97536594 24.20386712 -16.63580963 21.1974977 -14.28515625 18.19921875 C-10.41707692 13.26416117 -6.6036754 8.28799999 -2.79296875 3.30859375 C-1 1 -1 1 0 0 Z " fill="#2C8585" transform="translate(582,404)"/>
<path d="M0 0 C2.79340693 0.34566154 4.53917899 0.58526785 6.66235352 2.49609375 C7.38829712 3.45708984 7.38829712 3.45708984 8.12890625 4.4375 C8.68280029 5.15905273 9.23669434 5.88060547 9.80737305 6.62402344 C10.67616089 7.80013184 10.67616089 7.80013184 11.5625 9 C12.17456299 9.80727539 12.78662598 10.61455078 13.41723633 11.44628906 C17.96532046 17.48686956 22.35907907 23.63752813 26.64379883 29.86743164 C29.03009376 33.31573458 31.47193735 36.62985629 34.19140625 39.82421875 C42.69500964 49.81851486 42.69500964 49.81851486 43 55.5625 C42.56859286 59.10703433 41.9131777 60.11195507 39.625 63.0625 C35.51025607 66.0995729 33.1536537 66.43675031 28 66 C22.57126648 62.87847822 19.96295839 58.09523221 16 53 C15.67 88.97 15.34 124.94 15 162 C6.42 162 -2.16 162 -11 162 C-11.495 108.045 -11.495 108.045 -12 53 C-14.64 56.3 -17.28 59.6 -20 63 C-24.45476985 66.34107739 -25.6471963 66.56345302 -31 66 C-34.84090495 64.29293113 -36.41656161 62.83589252 -38 59 C-38.67752851 55.23483994 -38.8013855 51.59985535 -37.06054688 48.12451172 C-35.71544983 46.29137521 -34.27983086 44.61942342 -32.75 42.9375 C-31.63816943 41.63490446 -30.52886928 40.33014559 -29.421875 39.0234375 C-28.85146484 38.36053711 -28.28105469 37.69763672 -27.69335938 37.01464844 C-24.99097018 33.79952219 -22.49664566 30.43831627 -20 27.0625 C-19.01314181 25.7368891 -18.02616179 24.41136888 -17.0390625 23.0859375 C-16.54567383 22.42174805 -16.05228516 21.75755859 -15.54394531 21.07324219 C-13.91838847 18.89041033 -12.28458014 16.71396961 -10.6484375 14.5390625 C-10.10058594 13.81066162 -9.55273438 13.08226074 -8.98828125 12.33178711 C-7.9365578 10.93389258 -6.88449105 9.53625624 -5.83203125 8.13891602 C-5.35894531 7.50912842 -4.88585937 6.87934082 -4.3984375 6.23046875 C-3.98255371 5.67770264 -3.56666992 5.12493652 -3.13818359 4.55541992 C-2.04929161 3.06736097 -1.02281741 1.53422611 0 0 Z " fill="#1C3E73" transform="translate(440,404)"/>
<path d="M0 0 C30.03 0 60.06 0 91 0 C86.15584557 2.42207721 82.44453532 4 77 4 C77 4.66 77 5.32 77 6 C74.03 6.66 71.06 7.32 68 8 C68 8.66 68 9.32 68 10 C67.47792969 10.20753906 66.95585938 10.41507813 66.41796875 10.62890625 C57.58764163 14.32496261 49.60423666 19.00727884 43 26 C42.236875 26.45117188 41.47375 26.90234375 40.6875 27.3671875 C37.78497538 29.13063996 35.40304833 31.10980684 32.875 33.375 C31.60269531 34.50035156 31.60269531 34.50035156 30.3046875 35.6484375 C28.03584001 37.96343104 26.57784462 40.18649393 25 43 C24 44 23 45 22 46 C21.67 46.99 21.34 47.98 21 49 C20.01 49.495 20.01 49.495 19 50 C17.85643236 51.77074147 17.85643236 51.77074147 16.75 53.9375 C14.95864079 57.28839546 13.05309709 60.49144165 11 63.6875 C7.3193814 69.74913733 5.1947648 76.28847285 3 83 C2.33333333 85 1.66666667 87 1 89 C0.67 89 0.34 89 0 89 C0 59.63 0 30.26 0 0 Z " fill="#010101" transform="translate(0,0)"/>
<path d="M0 0 C0.33 0 0.66 0 1 0 C1 1.65 1 3.3 1 5 C1.66 5 2.32 5 3 5 C3.33 7.97 3.66 10.94 4 14 C4.66 14 5.32 14 6 14 C6.495 15.175625 6.99 16.35125 7.5 17.5625 C11.96840348 27.52200495 16.48036708 37.23371766 24.23828125 45.0703125 C26 47 26 47 27.39453125 49.4140625 C33.3124659 58.94611296 46.04335735 68.02167868 56 73 C56 73.66 56 74.32 56 75 C56.70125 75.103125 57.4025 75.20625 58.125 75.3125 C61.39137647 76.09359003 64.0471852 77.42058743 67 79 C67 79.66 67 80.32 67 81 C68.051875 81.103125 69.10375 81.20625 70.1875 81.3125 C74 82 74 82 76.375 83.4375 C80.04111304 85.61971014 83.83888253 86.22942269 88 87 C88 87.66 88 88.32 88 89 C58.96 89 29.92 89 0 89 C0 59.63 0 30.26 0 0 Z " fill="#010101" transform="translate(0,935)"/>
<path d="M0 0 C0.33 0 0.66 0 1 0 C1 24.75 1 49.5 1 75 C-23.75 75 -48.5 75 -74 75 C-72.515 74.505 -72.515 74.505 -71 74 C-71 73.34 -71 72.68 -71 72 C-70.40574219 71.78085937 -69.81148437 71.56171875 -69.19921875 71.3359375 C-59.4151495 67.59273216 -50.66697604 62.55428654 -41.9375 56.8125 C-41.28177002 56.38437012 -40.62604004 55.95624023 -39.95043945 55.51513672 C-36.96870543 53.51896732 -35.01362571 52.02043856 -33 49 C-32.34 49 -31.68 49 -31 49 C-31 48.34 -31 47.68 -31 47 C-30.01 46.67 -29.02 46.34 -28 46 C-23.52103804 41.74392477 -20.06428842 36.83081904 -17.04296875 31.46875 C-16.69878906 30.9840625 -16.35460937 30.499375 -16 30 C-15.34 30 -14.68 30 -14 30 C-13.690625 29.21625 -13.38125 28.4325 -13.0625 27.625 C-12 25 -12 25 -11 23 C-10.34 23 -9.68 23 -9 23 C-8.9175 22.360625 -8.835 21.72125 -8.75 21.0625 C-7.70479628 16.79458483 -5.85908174 12.96892333 -4 9 C-3.34 9 -2.68 9 -2 9 C-1.34 6.03 -0.68 3.06 0 0 Z " fill="#020202" transform="translate(1023,949)"/>
<path d="M0 0 C24.42 0 48.84 0 74 0 C74 24.09 74 48.18 74 73 C71.99285882 69.98928823 70.60530871 67.04809713 69.125 63.75 C67.42349149 60.00918349 65.718926 56.34973927 63.625 52.8125 C62 50 62 50 62 48 C61.34 48 60.68 48 60 48 C60 47.01 60 46.02 60 45 C59.34 45 58.68 45 58 45 C55.89293139 42.62105156 54.14705232 40.25574317 52.5625 37.5 C50.13867977 33.62188763 47.30669691 30.77779578 43.375 28.4375 C40.82988337 26.89703467 39.54581242 25.522115 38 23 C38 22.34 38 21.68 38 21 C37.42378906 20.896875 36.84757813 20.79375 36.25390625 20.6875 C33.62970503 19.88705041 32.07183062 18.71075441 29.9375 17 C27.50396398 15.0569079 25.99614169 13.9987139 23 13 C23 12.34 23 11.68 23 11 C22.2265625 10.8453125 22.2265625 10.8453125 21.4375 10.6875 C18.13973565 9.75736134 15.13366668 8.38604488 12 7 C12 6.34 12 5.68 12 5 C11.319375 4.896875 10.63875 4.79375 9.9375 4.6875 C6.37084011 3.85274981 3.33777806 2.50527246 0 1 C0 0.67 0 0.34 0 0 Z " fill="#010101" transform="translate(950,0)"/>
<path d="M0 0 C6.88520731 3.57010749 10.28305266 7.69798166 13.375 14.75 C14.65163581 19.30385334 14.375 22.72979296 14.375 27.75 C1.505 27.75 -11.365 27.75 -24.625 27.75 C-21.99041836 34.81625046 -21.99041836 34.81625046 -16.625 38.75 C-11.14614066 39.4737958 -5.62608558 39.25054279 -0.625 36.75 C0.79555068 34.74863756 0.79555068 34.74863756 1.375 32.75 C4.84441546 33.20822468 8.04895049 33.64131683 11.375 34.75 C10.2989331 39.77164553 8.34533739 42.33395747 4.42578125 45.42578125 C-1.5995609 49.31643075 -8.53404632 50.83086564 -15.625 49.75 C-23.48682498 47.45843666 -29.20856781 44.46158659 -33.375 37.25 C-36.96272394 30.61952285 -37.43379912 24.22220098 -36.625 16.75 C-34.08013494 8.79729669 -29.99780477 4.32113414 -22.89453125 0.14453125 C-16.09418374 -2.7559754 -6.98492505 -2.42606175 0 0 Z M-21.625 10.75 C-24.13297651 14.20927795 -24.625 15.36253376 -24.625 19.75 C-16.045 19.75 -7.465 19.75 1.375 19.75 C0.68064964 12.79405288 0.68064964 12.79405288 -3.625 8.75 C-9.50723094 4.82851271 -16.84913415 5.39524132 -21.625 10.75 Z " fill="#1B2E68" transform="translate(468.625,647.25)"/>
<path d="M0 0 C0.7513623 0.01353516 1.50272461 0.02707031 2.27685547 0.04101562 C10.42104505 0.34600161 14.88110697 2.46324815 20.4375 8.4375 C25.92907893 14.86137024 26.16063642 21.4339331 25.9375 29.5390625 C25.26949881 36.59482511 22.35811828 41.00996509 17.375 45.875 C11.51704789 50.46947225 3.90375249 52.30086391 -3.4375 51.5 C-11.03773636 49.86846447 -16.48086984 46.69916334 -20.98046875 40.30859375 C-24.74359975 33.74156123 -25.17967626 27.94237856 -24.4375 20.5 C-24.3653125 19.75492188 -24.293125 19.00984375 -24.21875 18.2421875 C-23.21801773 12.44248911 -19.81554123 8.29589731 -15.4375 4.5 C-10.14356384 0.86766424 -6.37254317 -0.1653355 0 0 Z M-10.4375 14.5 C-13.82707094 19.58435641 -12.99690405 25.56485951 -12.4375 31.5 C-10.98709152 35.6119828 -8.07183056 38.19912886 -4.4375 40.5 C-1.98815593 40.93438809 -1.98815593 40.93438809 0.5625 40.8125 C1.8309375 40.80669922 1.8309375 40.80669922 3.125 40.80078125 C7.3718959 40.27672519 9.14004364 39.02807045 11.8125 35.6875 C14.64003111 30.3466079 14.31487218 24.3534556 13.5625 18.5 C12.37962066 15.25311692 10.74276956 13.2347882 7.76171875 11.37890625 C1.46083306 8.8607903 -5.84008875 9.30937439 -10.4375 14.5 Z " fill="#2A8E8F" transform="translate(668.4375,645.5)"/>
<path d="M0 0 C5.5028956 3.43625259 9.96881577 8.69152958 13 14.375 C14.48827235 23.86273623 14.16939809 31.53085271 8.5 39.5625 C3.45694765 45.35221787 -2.22303541 48.05662247 -9.76953125 48.94921875 C-18.19798483 49.36014011 -24.02370447 48.10997515 -30.5 42.5625 C-32.9375 39.6875 -32.9375 39.6875 -34.5 36.5625 C-34.79519531 35.99015625 -35.09039062 35.4178125 -35.39453125 34.828125 C-38.29513799 28.41765165 -38.84096151 20.93864858 -36.7734375 14.19140625 C-33.85684184 7.91953998 -29.00837436 3.62130216 -23.5 -0.4375 C-16.87530939 -2.6457302 -6.43366963 -2.83648761 0 0 Z M-23.4765625 13.8359375 C-26.13671923 18.32368282 -26.03993097 22.42565674 -25.5 27.5625 C-24.23043795 31.68167687 -22.49399021 34.65370895 -19.3125 37.5625 C-14.33941845 39.33070677 -9.63246152 39.36809657 -4.6875 37.5 C-0.83156517 34.08474343 1.16086495 30.92274293 1.88671875 25.87109375 C2.06781743 21.28117885 1.82720257 18.24114238 -0.1875 14.0625 C-4.21124987 9.71250014 -7.02900046 8.35381704 -12.9375 7.9375 C-18.30803142 8.05346289 -20.41512757 9.53577168 -23.4765625 13.8359375 Z " fill="#182865" transform="translate(386.5,647.4375)"/>
<path d="M0 0 C1.01489502 -0.0153479 1.01489502 -0.0153479 2.05029297 -0.03100586 C10.45542645 0.11482453 16.10045091 3.70549064 22.04296875 9.2734375 C26.91485169 14.66070926 27.57342575 20.60220352 27.34765625 27.69921875 C26.4155883 35.04056294 22.56962059 41.60632349 17 46.4375 C10.04844838 51.28208649 2.19925053 51.36791141 -6 50.4375 C-12.71606589 48.70989463 -17.13461743 44.0106045 -21 38.4375 C-24.75131181 31.93256569 -25.05464124 24.46462326 -23.53125 17.203125 C-21.38595978 10.61401933 -16.60337664 4.32955915 -10.3828125 1.09375 C-6.94365033 0.14657091 -3.54370678 0.04163835 0 0 Z M-10.77734375 15.95703125 C-13.34322865 21.16258049 -12.99993319 26.38242775 -11.22265625 31.8125 C-9.54258336 35.48302069 -7.81008658 38.78989499 -4 40.4375 C1.60664841 41.18791183 6.30427174 40.82279247 11 37.4375 C14.94730112 32.45143543 15.64284693 28.34618042 15.3828125 22.02734375 C14.82682539 18.26592073 13.60722655 16.181949 11 13.4375 C6.77823876 10.42195626 2.58671594 9.65834919 -2.51953125 9.84375 C-6.4539635 10.78553536 -8.39223654 12.77124976 -10.77734375 15.95703125 Z " fill="#1F457D" transform="translate(548,645.5625)"/>
<path d="M0 0 C0.763125 0.33 1.52625 0.66 2.3125 1 C1.70259109 4.55780196 0.7341319 7.6828589 -0.6875 11 C-1.6775 10.67 -2.6675 10.34 -3.6875 10 C-8.28118823 9.49867985 -8.28118823 9.49867985 -12.36328125 11.19140625 C-14.09368081 13.55475432 -14.18646061 15.2839934 -14.375 18.1875 C-14.478125 19.775625 -14.58125 21.36375 -14.6875 23 C-10.3975 23 -6.1075 23 -1.6875 23 C-1.6875 25.97 -1.6875 28.94 -1.6875 32 C-5.9775 32 -10.2675 32 -14.6875 32 C-14.6875 44.21 -14.6875 56.42 -14.6875 69 C-18.3175 69 -21.9475 69 -25.6875 69 C-25.6875 56.79 -25.6875 44.58 -25.6875 32 C-28.3275 32 -30.9675 32 -33.6875 32 C-33.6875 29.03 -33.6875 26.06 -33.6875 23 C-30.2225 22.505 -30.2225 22.505 -26.6875 22 C-26.66171875 21.20335937 -26.6359375 20.40671875 -26.609375 19.5859375 C-26.03357646 8.82897384 -26.03357646 8.82897384 -21.6875 4 C-15.02763354 -1.86702522 -8.5481284 -2.31813652 0 0 Z " fill="#25788D" transform="translate(613.6875,626)"/>
<path d="M0 0 C3.96 0 7.92 0 12 0 C12 5.28 12 10.56 12 16 C15.63 16 19.26 16 23 16 C23 19.3 23 22.6 23 26 C19.37 26 15.74 26 12 26 C12.10944715 30.45885926 12.24017666 34.91684156 12.375 39.375 C12.4059375 40.64601563 12.436875 41.91703125 12.46875 43.2265625 C12.50742187 44.43828125 12.54609375 45.65 12.5859375 46.8984375 C12.63306885 48.57945557 12.63306885 48.57945557 12.68115234 50.29443359 C12.73411203 53.14710412 12.73411203 53.14710412 15 55 C17.22128555 55.02308597 17.22128555 55.02308597 19.625 54.625 C21.06875 54.41875 22.5125 54.2125 24 54 C24.33 57.3 24.66 60.6 25 64 C19.24055676 66.55975255 13.18429496 66.85446483 7 66 C3.77320239 64.36533228 1.63955029 62.27910057 0 59 C-0.08649451 56.51900266 -0.11565054 54.06655072 -0.09765625 51.5859375 C-0.0962413 50.85629791 -0.09482635 50.12665833 -0.09336853 49.37490845 C-0.08776531 47.04156415 -0.07521235 44.70831536 -0.0625 42.375 C-0.05748541 40.79427222 -0.05292243 39.21354293 -0.04882812 37.6328125 C-0.03779484 33.75517146 -0.02052811 29.87760193 0 26 C-2.31 26 -4.62 26 -7 26 C-7 23.03 -7 20.06 -7 17 C-4.69 17 -2.38 17 0 17 C0 11.39 0 5.78 0 0 Z " fill="#223A74" transform="translate(494,630)"/>
<path d="M0 0 C1.23556641 0.01740234 1.23556641 0.01740234 2.49609375 0.03515625 C3.32238281 0.04417969 4.14867187 0.05320312 5 0.0625 C5.63808594 0.07410156 6.27617188 0.08570313 6.93359375 0.09765625 C9.6785288 7.91581947 11.60980096 14.7765509 10.93359375 23.09765625 C9.94359375 22.76765625 8.95359375 22.43765625 7.93359375 22.09765625 C7.43859375 23.58265625 7.43859375 23.58265625 6.93359375 25.09765625 C3.07251918 22.52360654 2.99039683 20.48745366 1.93359375 16.09765625 C-0.67036136 24.30062947 -3.23273619 32.49233948 -5.44140625 40.8125 C-6.20741633 43.61322436 -7.10404168 46.35861862 -8.06640625 49.09765625 C-12.02640625 49.09765625 -15.98640625 49.09765625 -20.06640625 49.09765625 C-22.20638102 42.58439263 -24.34253081 36.06989211 -26.47509766 29.55419922 C-27.20157753 27.33640406 -27.92911367 25.11895463 -28.65771484 22.90185547 C-29.70295639 19.7206237 -30.74443098 16.53818041 -31.78515625 13.35546875 C-32.27731628 11.86166183 -32.27731628 11.86166183 -32.77941895 10.337677 C-33.07973022 9.41687347 -33.3800415 8.49606995 -33.68945312 7.54736328 C-33.95592651 6.73461945 -34.2223999 5.92187561 -34.49694824 5.08450317 C-35.06640625 3.09765625 -35.06640625 3.09765625 -35.06640625 1.09765625 C-31.43640625 1.09765625 -27.80640625 1.09765625 -24.06640625 1.09765625 C-22.77338259 5.11805772 -21.48194137 9.13895598 -20.19140625 13.16015625 C-19.82660156 14.29388672 -19.46179688 15.42761719 -19.0859375 16.59570312 C-17.32860279 22.07539227 -15.59628224 27.5498428 -14.06640625 33.09765625 C-11.92402602 29.88408591 -11.05193972 27.18663156 -9.9375 23.49609375 C-9.74293716 22.85902496 -9.54837433 22.22195618 -9.34791565 21.56558228 C-8.72856968 19.53599369 -8.11572664 17.50452498 -7.50390625 15.47265625 C-6.88789657 13.43384898 -6.27045524 11.39551765 -5.64918518 9.35830688 C-5.08736758 7.51517576 -4.53074524 5.67046343 -3.97436523 3.82568359 C-2.74424174 0.12969006 -2.74424174 0.12969006 0 0 Z " fill="#3A9F86" transform="translate(732.06640625,645.90234375)"/>
<path d="M0 0 C3.96 0 7.92 0 12 0 C12.09059952 7.57168051 12.16388736 15.14315726 12.20724869 22.71524906 C12.22806691 26.23184006 12.25627697 29.74803893 12.30175781 33.2644043 C12.35379134 37.31302518 12.3729927 41.36123829 12.390625 45.41015625 C12.41127014 46.66458023 12.43191528 47.91900421 12.45318604 49.21144104 C12.45522987 57.19872069 11.63465467 61.60812561 6.5 67.8125 C1.95715589 71.40891826 -2.39809272 71.64854296 -8 71 C-10.51784224 70.20513375 -12.63581636 69.20724271 -15 68 C-14.34 64.7 -13.68 61.4 -13 58 C-9.19140625 58.43945312 -9.19140625 58.43945312 -5.3828125 58.87890625 C-2.98346943 59.19674852 -2.98346943 59.19674852 -1 58 C-0.67 38.86 -0.34 19.72 0 0 Z " fill="#203068" transform="translate(410,646)"/>
<path d="M0 0 C3.96 0 7.92 0 12 0 C12.02505615 1.65563965 12.0501123 3.3112793 12.07592773 5.01708984 C12.16987226 11.14103365 12.2701243 17.26486057 12.37231445 23.38867188 C12.41571248 26.04261548 12.45738388 28.6965879 12.49731445 31.35058594 C12.55489925 35.15829158 12.6186275 38.96585155 12.68359375 42.7734375 C12.70030624 43.96617279 12.71701874 45.15890808 12.73423767 46.38778687 C12.75418289 47.48877716 12.77412811 48.58976746 12.79467773 49.72412109 C12.81022202 50.69674896 12.8257663 51.66937683 12.84178162 52.67147827 C12.85130651 55.02390474 12.85130651 55.02390474 14 57 C16.32156597 57.40729228 18.6568787 57.74438677 21 58 C21.33 60.97 21.66 63.94 22 67 C16.86185166 69.56907417 12.66210014 69.81822256 7 69 C3.3282787 67.14990787 1.31804316 64.95412948 0 61 C-0.08888831 59.02157239 -0.11760873 57.04023366 -0.11352539 55.05981445 C-0.11344986 53.83877518 -0.11337433 52.6177359 -0.11329651 51.35969543 C-0.10813522 50.04087875 -0.10297394 48.72206207 -0.09765625 47.36328125 C-0.0957908 45.99993441 -0.0943675 44.63658689 -0.09336853 43.27323914 C-0.08955332 39.68771509 -0.07973155 36.10223165 -0.06866455 32.51672363 C-0.05842901 28.8568578 -0.05386632 25.1969854 -0.04882812 21.53710938 C-0.03810838 14.35805227 -0.02051965 7.179037 0 0 Z " fill="#2C8290" transform="translate(619,627)"/>
<path d="M0 0 C-0.99 0 -1.98 0 -3 0 C-3.33 0.99 -3.66 1.98 -4 3 C-4.99 3 -5.98 3 -7 3 C-7.33 4.32 -7.66 5.64 -8 7 C-7.34 7.33 -6.68 7.66 -6 8 C-7 11 -7 11 -9.03125 12.7265625 C-11.80451742 15.92902607 -11.5333704 18.19535785 -11.5 22.375 C-11.5103125 23.66148437 -11.520625 24.94796875 -11.53125 26.2734375 C-10.92900565 30.49800448 -9.46703372 32.58562533 -7 36 C-7.25 38.875 -7.25 38.875 -8 41 C-8.99 41 -9.98 41 -11 41 C-11.33 49.91 -11.66 58.82 -12 68 C-15.96 68 -19.92 68 -24 68 C-24 45.56 -24 23.12 -24 0 C-20.7 0 -17.4 0 -14 0 C-14 2.31 -14 4.62 -14 7 C-13.44570313 6.50628906 -12.89140625 6.01257813 -12.3203125 5.50390625 C-11.59585937 4.86324219 -10.87140625 4.22257813 -10.125 3.5625 C-9.40570313 2.92441406 -8.68640625 2.28632812 -7.9453125 1.62890625 C-4.87967011 -0.93810756 -3.75777555 -1.12733266 0 0 Z " fill="#1B275F" transform="translate(280,647)"/>
<path d="M0 0 C6.30987058 3.90661451 10.11655984 8.93171077 12.453125 15.94140625 C13.08973954 24.64528368 13.21592358 32.35069602 8.453125 39.94140625 C7.875625 40.86953125 7.298125 41.79765625 6.703125 42.75390625 C1.66678563 47.65034731 -3.09518705 49.21972799 -10.109375 49.56640625 C-15.62728516 49.41241806 -18.58977189 48.34150477 -22.47265625 44.44921875 C-23.546875 42.94140625 -23.546875 42.94140625 -23.546875 40.94140625 C-22.886875 40.94140625 -22.226875 40.94140625 -21.546875 40.94140625 C-21.216875 39.62140625 -20.886875 38.30140625 -20.546875 36.94140625 C-19.556875 37.27140625 -18.566875 37.60140625 -17.546875 37.94140625 C-12.83154516 38.48928267 -9.41727218 38.36869214 -5.109375 36.25390625 C-1.67644427 33.15589559 -0.71496918 30.58305328 -0.24609375 26.00390625 C-0.24222656 24.99328125 -0.23835938 23.98265625 -0.234375 22.94140625 C-0.21761719 21.93078125 -0.20085937 20.92015625 -0.18359375 19.87890625 C-0.60876723 16.44094438 -1.39087569 14.64697402 -3.546875 11.94140625 C-7.87958047 9.55769371 -12.18077739 9.58845971 -17.0234375 9.3828125 C-19.87566634 8.88389321 -20.77521 8.17085046 -22.546875 5.94140625 C-20.546875 2.94140625 -20.546875 2.94140625 -17.546875 1.94140625 C-17.216875 1.28140625 -16.886875 0.62140625 -16.546875 -0.05859375 C-11.12169811 -1.86698605 -5.35148075 -2.22431178 0 0 Z " fill="#17255F" transform="translate(293.546875,647.05859375)"/>
<path d="M0 0 C3.3 0 6.6 0 10 0 C10.33 3.3 10.66 6.6 11 10 C11.928125 8.72125 12.85625 7.4425 13.8125 6.125 C15.81064318 3.37200273 17.11470214 1.92353191 20 0 C22.04296875 -0.1953125 22.04296875 -0.1953125 24.1875 -0.125 C26.0746875 -0.063125 26.0746875 -0.063125 28 0 C28 3.3 28 6.6 28 10 C25.88411458 10.32552083 23.76822917 10.65104167 21.65234375 10.9765625 C17.45197752 12.59732237 14.46631579 14.10932131 12 18 C10.98435755 23.28924992 11.01863407 28.51494419 11.0625 33.875 C11.04938021 35.34117747 11.03313492 36.80733051 11.01367188 38.2734375 C10.97297328 41.84939065 10.97492303 45.42383365 11 49 C7.37 49 3.74 49 0 49 C0 32.83 0 16.66 0 0 Z " fill="#15225D" transform="translate(317,646)"/>
<path d="M0 0 C3.82547135 1.27515712 5.60804136 2.58741196 8.375 5.5 C10.66644547 10.43542101 10.87790335 14.64933045 10 20 C8.39163894 24.08022743 6.4146245 27.056917 2.75 29.5 C-1.24747572 30.22681377 -4.9671499 30.71124811 -9 30 C-13.72253856 26.50942802 -16.45388031 22.26669762 -17.42578125 16.453125 C-17.79615986 11.19520123 -17.34338698 7.5859714 -14.125 3.3125 C-9.81927482 -0.94955657 -5.76514313 -1.11491198 0 0 Z " fill="#F6F7F9" transform="translate(553,656)"/>
<path d="M0 0 C4.62422478 1.7709797 6.86353475 4.56881281 9 9 C9.78300626 14.24376922 9.79839483 19.22099402 7.3125 24 C4.47243555 27.68440794 2.58209457 29.61746747 -2.109375 30.3125 C-6.1511107 30.52950594 -8.65677321 30.15890129 -12.375 28.4375 C-17.00006992 24.14279222 -18.15254491 20.05024637 -18.4375 13.9375 C-18.29542584 9.26326022 -17.08012768 6.60814957 -14 3 C-13.57074219 2.45988281 -13.14148438 1.91976562 -12.69921875 1.36328125 C-9.21120627 -1.43514715 -4.22954605 -0.44717667 0 0 Z " fill="#F5F6F7" transform="translate(379,656)"/>
<path d="M0 0 C4.68395247 0.05467649 7.91928547 0.42741947 11.8125 3.25 C15.76362369 8.67570573 15.44499673 13.77569322 14.8125 20.25 C13.52698035 24.24939446 12.28638306 25.82124866 9.1875 28.625 C4.8894635 30.69442498 1.49891479 31.23087751 -3.1875 30.25 C-7.01723582 28.1928383 -9.65070385 25.31351055 -11.1875 21.25 C-11.55859375 17.75390625 -11.55859375 17.75390625 -11.625 13.8125 C-11.66496094 12.51441406 -11.70492188 11.21632813 -11.74609375 9.87890625 C-11.06108689 5.4287568 -9.60142196 4.06425 -6.1875 1.25 C-4.48191557 -0.45558443 -2.32755782 0.03769324 0 0 Z " fill="#F6F7F8" transform="translate(279.1875,655.75)"/>
<path d="M0 0 C4.32494057 1.71195564 5.93745845 3.90364311 8 8 C8.80925808 13.75958455 9.04484199 19.94026702 6.25 25.1875 C3.60012309 28.49984613 1.81109057 29.71608316 -2.3671875 30.37109375 C-6.7346323 30.4867426 -9.98636013 30.56264275 -13.5 27.75 C-18.51167113 22.23716175 -18.47834927 17.69374058 -18.39453125 10.37109375 C-17.83975268 5.63075808 -16.61311615 4.01093012 -13 1 C-9.07466952 -0.96266524 -4.28932328 -0.34140779 0 0 Z " fill="#F8FBFA" transform="translate(674,656)"/>
<path d="M0 0 C3.63 0 7.26 0 11 0 C7.10712779 16.65284221 1.45564969 32.80716741 -4 49 C-7.96 49 -11.92 49 -16 49 C-19.81818182 38.5 -19.81818182 38.5 -19 34 C-16.625 31.125 -16.625 31.125 -14 29 C-13.34 29 -12.68 29 -12 29 C-11.34 30.32 -10.68 31.64 -10 33 C-9.54560547 31.43765625 -9.54560547 31.43765625 -9.08203125 29.84375 C-6.16744514 19.85909343 -3.1366226 9.91706633 0 0 Z " fill="#41AA84" transform="translate(760,646)"/>
<path d="M0 0 C3.30056072 1.65028036 5.24915523 2.94199146 7.375 5.9375 C8 8 8 8 8 13 C-0.58 13 -9.16 13 -18 13 C-17.04455548 7.2673329 -16.72327454 5.94229069 -13 2 C-8.74347138 -0.83768574 -4.99717834 -0.63727624 0 0 Z " fill="#F3F4F7" transform="translate(462,654)"/>
<path d="M0 0 C1.9375 1.625 1.9375 1.625 3 4 C2.67272727 10.32727273 2.67272727 10.32727273 0 13 C-7.10659898 13.67681895 -7.10659898 13.67681895 -10.0625 11.4375 C-11.41963883 7.90893904 -10.98515877 5.61224884 -10 2 C-6.95062482 -1.61407429 -4.34375767 -1.38630564 0 0 Z " fill="#2B3873" transform="translate(420,626)"/>
<path d="M0 0 C1.57554035 2.88628401 2.46276373 5.53342384 3.125 8.75 C3.29257812 9.54921875 3.46015625 10.3484375 3.6328125 11.171875 C3.81457031 12.07679688 3.81457031 12.07679688 4 13 C3.36578125 13.26554688 2.7315625 13.53109375 2.078125 13.8046875 C-0.33786225 14.90870494 -0.33786225 14.90870494 -1.25 18.125 C-1.4975 19.07375 -1.745 20.0225 -2 21 C-2.33 21 -2.66 21 -3 21 C-3.99 16.71 -4.98 12.42 -6 8 C-5.34 8 -4.68 8 -4 8 C-3.67 7.34 -3.34 6.68 -3 6 C-2.34 6 -1.68 6 -1 6 C-0.67 4.02 -0.34 2.04 0 0 Z " fill="#48B28B" transform="translate(743,662)"/>
</svg>
